<svg width="476" height="88" viewBox="0 0 476 88" fill="none" xmlns="http://www.w3.org/2000/svg">
<path d="M43.75 87.5C42.5844 87.5 41.5153 86.8512 40.9775 85.8169L34.4772 73.3169L40.0222 70.4328L43.75 77.6012L57.2272 51.6831L62.7722 54.5663L46.5222 85.8163C45.9844 86.8509 44.9156 87.5 43.75 87.5Z" fill="white"/>
<path d="M28.125 44.6197V37.5C28.125 30.6075 22.5175 25 15.625 25C8.7325 25 3.125 30.6075 3.125 37.5V44.6197C1.26562 45.7031 0 47.6975 0 50V65.625C0 69.0703 2.80312 71.875 6.25 71.875H25C28.4469 71.875 31.25 69.0703 31.25 65.625V50C31.25 47.6975 29.9844 45.7031 28.125 44.6197ZM15.625 31.25C19.0719 31.25 21.875 34.0547 21.875 37.5V43.75H9.375V37.5C9.375 34.0547 12.1781 31.25 15.625 31.25ZM25 65.625H6.25V50H25V65.625Z" fill="white"/>
<path d="M84.375 3.125H55.3834C54.3009 1.265 52.3081 0 50 0C46.5484 0 43.75 2.79844 43.75 6.25C43.75 9.70156 46.5484 12.5 50 12.5C52.3078 12.5 54.3006 11.235 55.3834 9.375H79.2284L66.1981 34.4331C66.0066 34.4147 65.8213 34.375 65.6253 34.375C62.1737 34.375 59.3753 37.1734 59.3753 40.625C59.3753 44.0766 62.1737 46.875 65.6253 46.875C69.0769 46.875 71.8753 44.0766 71.8753 40.625C71.8753 39.7247 71.6769 38.8747 71.335 38.1012L87.1475 7.69187C87.21 7.55469 87.5 7.03438 87.5 6.25C87.5 4.52437 86.1006 3.125 84.375 3.125Z" fill="white"/>
<path d="M3.125 3.125C1.39937 3.125 0 4.52437 0 6.25C0 7.03406 0.290312 7.55531 0.3525 7.69187L6.10281 18.75H13.1472L8.27187 9.375H37.5V3.125H3.125Z" fill="white"/>
<path d="M130.386 33.5C130.174 31.5152 129.28 29.9697 127.705 28.8636C126.144 27.7576 124.114 27.2045 121.614 27.2045C119.856 27.2045 118.348 27.4697 117.091 28C115.833 28.5303 114.871 29.25 114.205 30.1591C113.538 31.0682 113.197 32.1061 113.182 33.2727C113.182 34.2424 113.402 35.0833 113.841 35.7955C114.295 36.5076 114.909 37.1136 115.682 37.6136C116.455 38.0985 117.311 38.5076 118.25 38.8409C119.189 39.1742 120.136 39.4545 121.091 39.6818L125.455 40.7727C127.212 41.1818 128.902 41.7348 130.523 42.4318C132.159 43.1288 133.621 44.0076 134.909 45.0682C136.212 46.1288 137.242 47.4091 138 48.9091C138.758 50.4091 139.136 52.1667 139.136 54.1818C139.136 56.9091 138.439 59.3106 137.045 61.3864C135.652 63.447 133.636 65.0606 131 66.2273C128.379 67.3788 125.205 67.9545 121.477 67.9545C117.856 67.9545 114.712 67.3939 112.045 66.2727C109.394 65.1515 107.318 63.5152 105.818 61.3636C104.333 59.2121 103.53 56.5909 103.409 53.5H111.705C111.826 55.1212 112.326 56.4697 113.205 57.5455C114.083 58.6212 115.227 59.4242 116.636 59.9545C118.061 60.4848 119.652 60.75 121.409 60.75C123.242 60.75 124.848 60.4773 126.227 59.9318C127.621 59.3712 128.712 58.5985 129.5 57.6136C130.288 56.6136 130.689 55.447 130.705 54.1136C130.689 52.9015 130.333 51.9015 129.636 51.1136C128.939 50.3106 127.962 49.6439 126.705 49.1136C125.462 48.5682 124.008 48.0833 122.341 47.6591L117.045 46.2955C113.212 45.3106 110.182 43.8182 107.955 41.8182C105.742 39.803 104.636 37.1288 104.636 33.7955C104.636 31.053 105.379 28.6515 106.864 26.5909C108.364 24.5303 110.402 22.9318 112.977 21.7955C115.553 20.6439 118.47 20.0682 121.727 20.0682C125.03 20.0682 127.924 20.6439 130.409 21.7955C132.909 22.9318 134.871 24.5152 136.295 26.5455C137.72 28.5606 138.455 30.8788 138.5 33.5H130.386ZM153.494 67.25L143.631 32.3409H152.017L158.153 56.8864H158.472L164.744 32.3409H173.04L179.312 56.75H179.653L185.699 32.3409H194.108L184.222 67.25H175.653L169.108 43.6591H168.631L162.085 67.25H153.494ZM209.898 67.9545C207.686 67.9545 205.693 67.5606 203.92 66.7727C202.163 65.9697 200.769 64.7879 199.739 63.2273C198.723 61.6667 198.216 59.7424 198.216 57.4545C198.216 55.4848 198.58 53.8561 199.307 52.5682C200.034 51.2803 201.027 50.25 202.284 49.4773C203.542 48.7045 204.958 48.1212 206.534 47.7273C208.125 47.3182 209.769 47.0227 211.466 46.8409C213.511 46.6288 215.17 46.4394 216.443 46.2727C217.716 46.0909 218.64 45.8182 219.216 45.4545C219.807 45.0758 220.102 44.4924 220.102 43.7045V43.5682C220.102 41.8561 219.595 40.5303 218.58 39.5909C217.564 38.6515 216.102 38.1818 214.193 38.1818C212.178 38.1818 210.58 38.6212 209.398 39.5C208.231 40.3788 207.443 41.4167 207.034 42.6136L199.352 41.5227C199.958 39.4015 200.958 37.6288 202.352 36.2045C203.746 34.7651 205.451 33.6894 207.466 32.9773C209.481 32.25 211.708 31.8864 214.148 31.8864C215.83 31.8864 217.504 32.0833 219.17 32.4773C220.837 32.8712 222.36 33.5227 223.739 34.4318C225.117 35.3258 226.223 36.5455 227.057 38.0909C227.905 39.6364 228.33 41.5682 228.33 43.8864V67.25H220.42V62.4545H220.148C219.648 63.4242 218.943 64.3333 218.034 65.1818C217.14 66.0152 216.011 66.6894 214.648 67.2045C213.299 67.7045 211.716 67.9545 209.898 67.9545ZM212.034 61.9091C213.686 61.9091 215.117 61.5833 216.33 60.9318C217.542 60.2652 218.473 59.3864 219.125 58.2955C219.792 57.2045 220.125 56.0152 220.125 54.7273V50.6136C219.867 50.8258 219.428 51.0227 218.807 51.2045C218.201 51.3864 217.519 51.5455 216.761 51.6818C216.004 51.8182 215.254 51.9394 214.511 52.0455C213.769 52.1515 213.125 52.2424 212.58 52.3182C211.352 52.4848 210.254 52.7576 209.284 53.1364C208.314 53.5152 207.549 54.0455 206.989 54.7273C206.428 55.3939 206.148 56.2576 206.148 57.3182C206.148 58.8333 206.701 59.9773 207.807 60.75C208.913 61.5227 210.322 61.9091 212.034 61.9091ZM236.602 80.3409V32.3409H244.693V38.1136H245.17C245.595 37.2652 246.193 36.3636 246.966 35.4091C247.739 34.4394 248.784 33.6136 250.102 32.9318C251.42 32.2348 253.102 31.8864 255.148 31.8864C257.845 31.8864 260.277 32.5758 262.443 33.9545C264.625 35.3182 266.352 37.3409 267.625 40.0227C268.913 42.6894 269.557 45.9621 269.557 49.8409C269.557 53.6742 268.928 56.9318 267.67 59.6136C266.413 62.2955 264.701 64.3409 262.534 65.75C260.367 67.1591 257.913 67.8636 255.17 67.8636C253.17 67.8636 251.511 67.5303 250.193 66.8636C248.875 66.197 247.814 65.3939 247.011 64.4545C246.223 63.5 245.61 62.5985 245.17 61.75H244.83V80.3409H236.602ZM244.67 49.7955C244.67 52.053 244.989 54.0303 245.625 55.7273C246.277 57.4242 247.208 58.75 248.42 59.7045C249.648 60.6439 251.133 61.1136 252.875 61.1136C254.693 61.1136 256.216 60.6288 257.443 59.6591C258.67 58.6742 259.595 57.3333 260.216 55.6364C260.852 53.9242 261.17 51.9773 261.17 49.7955C261.17 47.6288 260.86 45.7045 260.239 44.0227C259.617 42.3409 258.693 41.0227 257.466 40.0682C256.239 39.1136 254.708 38.6364 252.875 38.6364C251.117 38.6364 249.625 39.0985 248.398 40.0227C247.17 40.947 246.239 42.2424 245.602 43.9091C244.981 45.5758 244.67 47.5379 244.67 49.7955ZM308.148 35.5682C307.769 34.3409 307.246 33.2424 306.58 32.2727C305.928 31.2879 305.14 30.447 304.216 29.75C303.307 29.053 302.261 28.5303 301.08 28.1818C299.898 27.8182 298.61 27.6364 297.216 27.6364C294.716 27.6364 292.489 28.2652 290.534 29.5227C288.58 30.7803 287.042 32.6288 285.92 35.0682C284.814 37.4924 284.261 40.447 284.261 43.9318C284.261 47.447 284.814 50.4242 285.92 52.8636C287.027 55.303 288.564 57.1591 290.534 58.4318C292.504 59.6894 294.792 60.3182 297.398 60.3182C299.761 60.3182 301.807 59.8636 303.534 58.9545C305.277 58.0455 306.617 56.7576 307.557 55.0909C308.496 53.4091 308.966 51.4394 308.966 49.1818L310.875 49.4773H298.239V42.8864H317.125V48.4773C317.125 52.4621 316.277 55.9091 314.58 58.8182C312.883 61.7273 310.549 63.9697 307.58 65.5455C304.61 67.1061 301.201 67.8864 297.352 67.8864C293.064 67.8864 289.299 66.9242 286.057 65C282.83 63.0606 280.307 60.3106 278.489 56.75C276.686 53.1742 275.784 48.9318 275.784 44.0227C275.784 40.2652 276.314 36.9091 277.375 33.9545C278.451 31 279.951 28.4924 281.875 26.4318C283.799 24.3561 286.057 22.7803 288.648 21.7045C291.239 20.6136 294.057 20.0682 297.102 20.0682C299.678 20.0682 302.08 20.447 304.307 21.2045C306.534 21.947 308.511 23.0076 310.239 24.3864C311.981 25.7652 313.413 27.4015 314.534 29.2955C315.655 31.1894 316.39 33.2803 316.739 35.5682H308.148ZM347.165 52.5682V32.3409H355.392V67.25H347.415V61.0455H347.051C346.263 63 344.968 64.5985 343.165 65.8409C341.377 67.0833 339.172 67.7045 336.551 67.7045C334.263 67.7045 332.241 67.197 330.483 66.1818C328.741 65.1515 327.377 63.6591 326.392 61.7045C325.407 59.7348 324.915 57.3561 324.915 54.5682V32.3409H333.142V53.2955C333.142 55.5076 333.748 57.2652 334.96 58.5682C336.172 59.8712 337.763 60.5227 339.733 60.5227C340.945 60.5227 342.119 60.2273 343.256 59.6364C344.392 59.0455 345.324 58.1667 346.051 57C346.794 55.8182 347.165 54.3409 347.165 52.5682ZM373.898 67.9545C371.686 67.9545 369.693 67.5606 367.92 66.7727C366.163 65.9697 364.769 64.7879 363.739 63.2273C362.723 61.6667 362.216 59.7424 362.216 57.4545C362.216 55.4848 362.58 53.8561 363.307 52.5682C364.034 51.2803 365.027 50.25 366.284 49.4773C367.542 48.7045 368.958 48.1212 370.534 47.7273C372.125 47.3182 373.769 47.0227 375.466 46.8409C377.511 46.6288 379.17 46.4394 380.443 46.2727C381.716 46.0909 382.64 45.8182 383.216 45.4545C383.807 45.0758 384.102 44.4924 384.102 43.7045V43.5682C384.102 41.8561 383.595 40.5303 382.58 39.5909C381.564 38.6515 380.102 38.1818 378.193 38.1818C376.178 38.1818 374.58 38.6212 373.398 39.5C372.231 40.3788 371.443 41.4167 371.034 42.6136L363.352 41.5227C363.958 39.4015 364.958 37.6288 366.352 36.2045C367.746 34.7651 369.451 33.6894 371.466 32.9773C373.481 32.25 375.708 31.8864 378.148 31.8864C379.83 31.8864 381.504 32.0833 383.17 32.4773C384.837 32.8712 386.36 33.5227 387.739 34.4318C389.117 35.3258 390.223 36.5455 391.057 38.0909C391.905 39.6364 392.33 41.5682 392.33 43.8864V67.25H384.42V62.4545H384.148C383.648 63.4242 382.943 64.3333 382.034 65.1818C381.14 66.0152 380.011 66.6894 378.648 67.2045C377.299 67.7045 375.716 67.9545 373.898 67.9545ZM376.034 61.9091C377.686 61.9091 379.117 61.5833 380.33 60.9318C381.542 60.2652 382.473 59.3864 383.125 58.2955C383.792 57.2045 384.125 56.0152 384.125 54.7273V50.6136C383.867 50.8258 383.428 51.0227 382.807 51.2045C382.201 51.3864 381.519 51.5455 380.761 51.6818C380.004 51.8182 379.254 51.9394 378.511 52.0455C377.769 52.1515 377.125 52.2424 376.58 52.3182C375.352 52.4848 374.254 52.7576 373.284 53.1364C372.314 53.5152 371.549 54.0455 370.989 54.7273C370.428 55.3939 370.148 56.2576 370.148 57.3182C370.148 58.8333 370.701 59.9773 371.807 60.75C372.913 61.5227 374.322 61.9091 376.034 61.9091ZM400.602 67.25V32.3409H408.58V38.1591H408.943C409.58 36.1439 410.67 34.5909 412.216 33.5C413.777 32.3939 415.557 31.8409 417.557 31.8409C418.011 31.8409 418.519 31.8636 419.08 31.9091C419.655 31.9394 420.133 31.9924 420.511 32.0682V39.6364C420.163 39.5152 419.61 39.4091 418.852 39.3182C418.11 39.2121 417.39 39.1591 416.693 39.1591C415.193 39.1591 413.845 39.4848 412.648 40.1364C411.466 40.7727 410.534 41.6591 409.852 42.7955C409.17 43.9318 408.83 45.2424 408.83 46.7273V67.25H400.602ZM437.494 67.8636C434.752 67.8636 432.297 67.1591 430.131 65.75C427.964 64.3409 426.252 62.2955 424.994 59.6136C423.737 56.9318 423.108 53.6742 423.108 49.8409C423.108 45.9621 423.744 42.6894 425.017 40.0227C426.305 37.3409 428.04 35.3182 430.222 33.9545C432.403 32.5758 434.835 31.8864 437.517 31.8864C439.563 31.8864 441.244 32.2348 442.562 32.9318C443.881 33.6136 444.926 34.4394 445.699 35.4091C446.472 36.3636 447.07 37.2652 447.494 38.1136H447.835V20.7045H456.085V67.25H447.994V61.75H447.494C447.07 62.5985 446.456 63.5 445.653 64.4545C444.85 65.3939 443.79 66.197 442.472 66.8636C441.153 67.5303 439.494 67.8636 437.494 67.8636ZM439.79 61.1136C441.532 61.1136 443.017 60.6439 444.244 59.7045C445.472 58.75 446.403 57.4242 447.04 55.7273C447.676 54.0303 447.994 52.053 447.994 49.7955C447.994 47.5379 447.676 45.5758 447.04 43.9091C446.419 42.2424 445.494 40.947 444.267 40.0227C443.055 39.0985 441.563 38.6364 439.79 38.6364C437.956 38.6364 436.426 39.1136 435.199 40.0682C433.972 41.0227 433.047 42.3409 432.426 44.0227C431.805 45.7045 431.494 47.6288 431.494 49.7955C431.494 51.9773 431.805 53.9242 432.426 55.6364C433.063 57.3333 433.994 58.6742 435.222 59.6591C436.464 60.6288 437.987 61.1136 439.79 61.1136Z" fill="white"/>
</svg>
